<svg id="logo" xmlns="http://www.w3.org/2000/svg" viewBox="0 0 534.39 101.25"><defs><style>.cls-1{fill:#3597fb;}</style></defs><title>SC logo</title><path class="cls-1" d="M18.69,101.25C8.83,101.25,0,97.8,0,92c0-9,17.41-16.51,22.15-16.51.77,0,1.15.38,1.15.9,0,.77-.77,1.15-1.79,1.66-6.14,2.56-11,6.78-11,12.93,0,3.46,4,6.66,10.62,6.66C32,97.67,47,90.5,47,79.24,47,66.31,7.42,65.41,7.42,42.75,7.42,18.56,42,.13,66.31.13c10.88,0,16.64,4.86,16.64,12,0,16.38-20.23,33.41-38.27,33.41-5.25,0-8.06-1.66-8.06-3.58,0-1.28,1.66-2.82,3.2-2.82,2.18,0,2.56,3.58,7.81,3.58,13.31,0,32.13-15.62,32.13-29.44C79.75,7.94,75.52,4.1,68,4.1c-21.5,0-48.64,18.31-48.64,38.15,0,18.43,34.43,17.41,34.43,33.41C53.76,90.12,34.82,101.25,18.69,101.25Z"/><path class="cls-1" d="M111.49,65.41a27.78,27.78,0,0,1-6.53,1c-7.68,0-11.14-2-13.18-14-.26-1.66-.64-1.92-1.28-1.92-2,0-7.68,4.86-11.52,13.57-1,2.43-1.79,3.58-3.07,3.58-1.54,0-3.46-1.79-3.46-6.4,0-20.35,15.36-48.13,26.11-48.13A4.17,4.17,0,0,1,103,17.41c0,7.3-12.67,24.71-22.66,35.2-.38,2-.64,4.35-.9,6.27,3.33-5.63,10.37-12.67,15.1-12.67,2.82,0,4.48,1.15,5,5.12,1,7.81,2.18,13.44,8.06,13.44a17.81,17.81,0,0,0,3.46-.38ZM80.9,49.79c8.45-9.73,19.46-24.83,19.46-31.11a.87.87,0,0,0-.9-.9C95.36,17.79,84.61,35.07,80.9,49.79Z"/><path class="cls-1" d="M142.85,57.09c-6.4,6-13.57,12.16-22.53,12.16-5.89,0-10.75-2.43-10.75-7.68,0-7.42,9.09-13.82,14.34-13.82,3.58,0,4.86,1.92,4.86,3.71,0,3.58-6.4,8.58-11.39,11.52.26,1.66,1.54,3.71,5.12,3.71,8.06,0,14-4.86,19.71-10.37ZM117.12,61.7c3.84-2.3,9.22-6.78,9.22-10a1.36,1.36,0,0,0-1.54-1.28C121.6,50.43,117.12,57.09,117.12,61.7Z"/><path class="cls-1" d="M167.29,57.09c-6.4,6-13.44,10.75-20.23,10.75-4.1,0-7.81-1.54-7.81-5.25,0-5,4.86-9.6,5.63-14a3.92,3.92,0,0,1,4.1-3.33,3.33,3.33,0,0,1,3.46,3.33c0,3.84-5.38,7.3-5.38,13.44,0,1.79,1.41,2.94,3.33,2.94,4.74,0,10.5-3.2,16.26-8.7Zm-7.55-23.94c0,1.92-2.56,5-5,5a2.66,2.66,0,0,1-2.82-2.69c0-2.3,2.69-5.25,4.86-5.25A2.82,2.82,0,0,1,159.74,33.15Z"/><path class="cls-1" d="M192.77,57.09c-6.4,6-13.44,11.14-18.69,11.14-6.66,0-9.6-3.58-9.6-10.62,0-15.75,13.31-41.73,24.83-41.73a4.79,4.79,0,0,1,4.74,5c0,9.34-14.08,25.6-22.4,33.67a23.67,23.67,0,0,0-.13,2.94c0,5.63,2.3,7.68,5,7.68,4.35,0,9.86-3.33,15.62-8.83ZM171.9,52.48c6.78-6.91,19.71-23.42,19.71-31.75a1.42,1.42,0,0,0-1.41-1.41C186.24,19.33,174.72,37.89,171.9,52.48Z"/><path class="cls-1" d="M217.08,61.31a.55.55,0,0,1,.51.51,1.87,1.87,0,0,1-.64,1c-1.54,1.66-4.1,3.71-6.66,3.71-2.82,0-5-1.54-6.14-7-4.22,4.86-9.73,9.34-13.18,9.34-1.79,0-4-1.15-4-3.46,0-6.66,11.52-18.94,19.58-18.94,5.12,0,6.53,3.46,6.53,4.35s-.64,1.28-1.15,1.28-1-.64-1.15-1.15a2.22,2.22,0,0,0-2.18-1.79c-4.48,0-14.85,11.9-14.85,15.75a.86.86,0,0,0,.77.9c1,0,4.86-2.94,8.7-7.55,1.41-1.66,2.82-4.48,4.48-4.48s1.66,1.15,2,3.58c.51,3.84,1.66,5.5,3.33,5.5a5.69,5.69,0,0,0,3.07-1.15A1.7,1.7,0,0,1,217.08,61.31Z"/><path class="cls-1" d="M309.25,57.09c-6.27,6-25.47,25.09-46.08,25.09-10.24,0-22.79-4.22-22.79-20.35C240.38,31.75,278.52,0,303.49,0c10,0,14.08,4.61,14.08,10,0,12.67-14.59,28.29-30,28.29-4.22,0-7-1.54-7-3.58,0-1.41,1.54-2.56,3.07-2.56,2.3,0,2.94,3.2,8.58,3.2,9.47,0,22.53-13.82,22.53-23.55,0-5.25-2.69-8.7-9.6-8.7-21.89,0-53.76,31.62-53.76,57.6,0,11.9,6.66,16.38,15.11,16.38,20.22,0,36.35-15.23,42.11-20.74Z"/><path class="cls-1" d="M346,57.09c-6.4,6-11.52,9.47-16,9.47-4.22,0-7.81-2.43-7.94-6.91-4.61,4.35-10.37,8.45-13.7,8.45s-4.22-1.66-4.22-3.58c0-7.3,12-18.56,20.61-18.56,5,0,7.17,2.69,7.17,5.12,0,1.54-1,2.69-2.3,3.71a2.17,2.17,0,0,1,.26,1.15c0,2-.64,2-.64,4.22a3.39,3.39,0,0,0,3.46,3.58c3.07,0,6.91-1.92,12.67-7.42Zm-17.41-3.58a3.38,3.38,0,0,0,.64-2.18c0-.64-.77-1.41-2-1.41-6.27,0-15.49,10.24-15.49,13.44a.91.91,0,0,0,1,.9c.64,0,4-1.66,9-6.53,1.79-1.79,4.1-4.61,5.5-4.61A2.3,2.3,0,0,1,328.57,53.51Z"/><path class="cls-1" d="M371.07,57.09c-6,6-12.29,12.42-18.31,12.42-4.22,0-9.34-3.84-9.34-12.42,0-18.82,11.39-38.15,22.14-38.15,2.3,0,4.86,2.82,4.86,6.14,0,8.19-12,20.35-19.84,29.19a15.5,15.5,0,0,0-.13,2.43c0,5.25,1.54,9.34,4.35,9.34,5.76,0,10-4.22,15.62-9.73Zm-20.23-5.5c7-7.81,17.41-20.22,17.41-26.88a1.49,1.49,0,0,0-1.66-1.41C362.36,23.3,352.38,38.53,350.84,51.59Z"/><path class="cls-1" d="M374.78,59.52c0,7.68,2.82,12.54,7.81,12.54a5.06,5.06,0,0,0,1.66-.38.47.47,0,0,1,.51.51c0,.51-1.79,1.41-3.58,1.41-9.34,0-13.19-5.76-13.19-15.49,0-16.51,12.8-41.73,24.58-41.73a4.79,4.79,0,0,1,4.74,5c0,9.73-14,25.22-22.27,33.67C374.91,56.45,374.78,58.24,374.78,59.52Zm.77-7.3c6.78-6.91,19.46-22,19.46-31a1.48,1.48,0,0,0-1.54-1.54C389.75,19.58,378.36,37.51,375.55,52.23Z"/><path class="cls-1" d="M424.57,57.09c-6.4,6-11.52,9.47-16,9.47-4.22,0-7.81-2.43-7.94-6.91C396,64,390.26,68.1,386.94,68.1s-4.22-1.66-4.22-3.58c0-7.3,12-18.56,20.61-18.56,5,0,7.17,2.69,7.17,5.12,0,1.54-1,2.69-2.3,3.71a2.17,2.17,0,0,1,.26,1.15c0,2-.64,2-.64,4.22a3.39,3.39,0,0,0,3.46,3.58c3.07,0,6.91-1.92,12.67-7.42Zm-17.41-3.58a3.38,3.38,0,0,0,.64-2.18c0-.64-.77-1.41-2-1.41-6.27,0-15.49,10.24-15.49,13.44a.91.91,0,0,0,1,.9c.64,0,4-1.66,9-6.53,1.79-1.79,4.1-4.61,5.5-4.61A2.3,2.3,0,0,1,407.16,53.51Z"/><path class="cls-1" d="M429,64.64c-.51,1.54-.51,2.94-2,2.94-1.92,0-4.35-2.3-4.35-4.86,0-21.63,16.64-47.36,27.65-47.36,3.07,0,5.38,3.33,5.38,6.14,0,6.66-15.36,21.76-24.83,30.85A42.91,42.91,0,0,0,429.3,60c3.07-5,10.63-13.57,15.1-13.57,2.56,0,4.61,1.28,4.61,5.12,0,2.43-.51,4.86-.51,8.06,0,7.94,1.66,11.26,5.76,11.26a10,10,0,0,0,1.79-.38c.38,0,.51.26.51.38s-.26.51-.64.77a9.71,9.71,0,0,1-4.22,1.15c-5.38,0-10.37-3.2-10.37-12.54,0-2.43.64-5,.64-7.81,0-1-.51-1.41-1-1.41C438.39,51.07,431.61,57.35,429,64.64Zm2.56-14.85c7.68-7.94,21.76-22.27,21.76-29.06a1.32,1.32,0,0,0-1.28-1.41C449,19.33,437.75,31.23,431.61,49.79Z"/><path class="cls-1" d="M494.58,57.09c-6.4,6-11.52,9.47-16,9.47-4.22,0-7.81-2.43-7.94-6.91C466,64,460.28,68.1,457,68.1s-4.22-1.66-4.22-3.58c0-7.3,12-18.56,20.61-18.56,5,0,7.17,2.69,7.17,5.12,0,1.54-1,2.69-2.3,3.71a2.17,2.17,0,0,1,.26,1.15c0,2-.64,2-.64,4.22a3.39,3.39,0,0,0,3.46,3.58c3.07,0,6.91-1.92,12.67-7.42Zm-17.41-3.58a3.38,3.38,0,0,0,.64-2.18c0-.64-.77-1.41-2-1.41-6.27,0-15.49,10.24-15.49,13.44a.91.91,0,0,0,1,.9c.64,0,4-1.66,9-6.53,1.79-1.79,4.1-4.61,5.5-4.61A2.3,2.3,0,0,1,477.17,53.51Z"/><path class="cls-1" d="M498.68,45.83c2.18,0,4.22,1.66,4.22,3.46,0,2.56-1.92,4.61-3.71,8.83,3.07-4,8.83-11.26,13.06-11.26,2.18,0,4.48,1.79,4.48,4,0,1.92-2,5.5-2,7.17,3.2-4.22,6.91-7.94,9.86-7.94a3.37,3.37,0,0,1,3.58,3.33c0,2.69-.26,4.22-.26,5.63,0,3.58.64,5,2,5a4.86,4.86,0,0,0,2.94-1.66c.38-.38.77-.77,1-.77a.47.47,0,0,1,.51.51,4,4,0,0,1-.64,1.28c-1,1.28-3.2,3.84-6.14,3.84-3.71,0-5.38-2.3-5.38-6.27,0-1.79.64-4.35.64-6.66,0-1-.26-1.28-.77-1.28-1.15,0-4.22,3.33-8.45,8.7-1.92,2.56-2.3,3.58-4.22,3.58-1,0-3.58-.9-3.58-2.82,0-3.46,4.48-9,4.48-12.42a.41.41,0,0,0-.38-.38c-2,0-10.11,10.37-13.57,15-1.66,2.18-2.3,2.94-3.71,2.94s-3.84-1-3.84-2.94c0-4,5.25-10.88,5.63-14.59C494.71,47,496.12,45.83,498.68,45.83Z"/></svg>